<?xml version="1.0" encoding="utf-8"?>
<!-- Generator: Adobe Illustrator 12.0.0, SVG Export Plug-In . SVG Version: 6.00 Build 51448)  -->
<!DOCTYPE svg PUBLIC "-//W3C//DTD SVG 1.1//EN" "http://www.w3.org/Graphics/SVG/1.1/DTD/svg11.dtd" [
	<!ENTITY ns_svg "http://www.w3.org/2000/svg">
	<!ENTITY ns_xlink "http://www.w3.org/1999/xlink">
]>
<svg  version="1.1" id="Layer_1" xmlns="&ns_svg;" xmlns:xlink="&ns_xlink;" width="83.154" height="71.809"
	 viewBox="0 0 83.154 71.809" overflow="visible" enable-background="new 0 0 83.154 71.809" xml:space="preserve">
<path fill="#4D4D4D" d="M45.285,18.904l7.787,11.722l-10.075,4.479c6.67,1.135,11.162,2.928,14.189,4.8
	c2.148-0.604,4.228-1.604,5.974-3.203c0.858-0.787,1.527-1.389,2.037-1.916l0.456-3.225C66.486,22.068,45.284,18.905,45.285,18.904z
	"/>
<path d="M35.592,43.748L16.189,48.6c-3.735,0.934-7.555-1.358-8.489-5.093L0.208,13.55c-0.934-3.735,1.357-7.555,5.092-8.489
	l19.403-4.852c3.735-0.934,7.555,1.358,8.489,5.093l7.492,29.958C41.618,38.994,39.327,42.814,35.592,43.748z"/>
<path fill="#FFFFFF" stroke="#000000" stroke-miterlimit="10" d="M49.114,52.405l-18.817-6.776
	c-3.622-1.304-5.519-5.335-4.214-8.958L36.545,7.618c1.305-3.622,5.335-5.519,8.958-4.214L64.32,10.18
	c3.622,1.304,5.519,5.335,4.214,8.958L58.072,48.191C56.768,51.813,52.736,53.709,49.114,52.405z"/>
<text transform="matrix(0.9669 -0.2551 0.2551 0.9669 4.4888 23.1235)" fill="#FFFFFF" font-family="'MicrosoftNewTaiLue'" font-size="11">Black</text>
<text transform="matrix(1 0 0 1 25.1128 32.4839)" stroke="#FFFFFF" stroke-miterlimit="10" font-family="'FranklinGothic-Medium'" font-size="16">&amp;</text>
<text transform="matrix(0.9404 0.3401 -0.3401 0.9404 34.2969 18.4419)" font-family="'ArialRoundedMTBold'" font-size="11">White</text>
<rect x="4.485" y="36.008" display="none" fill="#4D4D4D" width="57.836" height="12.8"/>
<path stroke="#FFFFFF" stroke-miterlimit="10" d="M6.881,39.646l-0.514,3.636L4.806,54.331c0.354-0.322,0.733-0.667,1.151-1.05
	c1.656-1.515,3.567-2.532,5.548-3.195c2.357-0.788,4.81-1.071,7.053-1.098c3.959-0.286,9.029-0.109,15.529,0.849
	c1.789,0.293,27.746,4.391,29.511-4.639l0.514-3.637l1.563-11.063c-0.343,0.322-0.725,0.671-1.153,1.062
	c-1.656,1.517-3.568,2.532-5.548,3.194c-2.367,0.792-4.831,1.077-7.082,1.102c-3.955,0.282-9.015,0.104-15.499-0.851
	C34.605,34.711,8.647,30.615,6.881,39.646z"/>
<path display="none" d="M23.493,71.809l-7.787-11.721l10.076-4.479c-6.671-1.134-11.163-2.928-14.19-4.801
	c-2.149,0.604-4.228,1.605-5.973,3.203c-0.809,0.741-1.478,1.33-2.028,1.856l-0.464,3.286C2.291,68.645,23.493,71.809,23.493,71.809
	z"/>
<rect x="19.821" y="37.008" fill="none" width="63.333" height="24.833"/>
<text transform="matrix(1 0 0 1 19.8213 45.8911)" fill="#FFFFFF" font-family="'MicrosoftNewTaiLue'" font-size="12">Cards</text>
</svg>
